# Blender 4.0.0
# www.blender.org
mtllib skyscraper.mtl
o Cube
v 0.500000 0.750000 -0.500000
v 0.500000 0.000000 -0.500000
v 0.500000 0.750000 0.500000
v 0.500000 0.000000 0.500000
v -0.500000 0.750000 -0.500000
v -0.500000 0.000000 -0.500000
v -0.500000 0.750000 0.500000
v -0.500000 0.000000 0.500000
v 0.500000 0.500000 -0.500000
v -0.500000 0.500000 0.500000
v 0.500000 0.500000 0.500000
v -0.500000 0.500000 -0.500000
v -0.500000 0.000000 0.000000
v 0.500000 0.900000 0.000000
v -0.500000 0.900000 0.000000
v 0.500000 0.000000 0.000000
v 0.500000 0.500000 0.000000
v -0.500000 0.500000 0.000000
v 0.000000 0.000000 -0.500000
v 0.000000 0.900000 0.500000
v 0.000000 0.000000 0.500000
v 0.000000 0.900000 -0.500000
v 0.000000 0.500000 -0.500000
v 0.000000 0.500000 0.500000
v 0.000000 0.000000 0.000000
v 0.000000 1.000000 0.000000
vn -0.2357 0.9428 0.2357
vn -0.0000 -0.0000 1.0000
vn -1.0000 -0.0000 -0.0000
vn -0.0000 -1.0000 -0.0000
vn 1.0000 -0.0000 -0.0000
vn -0.0000 -0.0000 -1.0000
vn -0.2357 0.9428 -0.2357
vn 0.2357 0.9428 -0.2357
vn 0.2357 0.9428 0.2357
vt 0.750000 0.625000
vt 0.875000 0.625000
vt 0.875000 0.750000
vt 0.750000 0.750000
vt 0.500000 0.875000
vt 0.625000 0.875000
vt 0.625000 1.000000
vt 0.500000 1.000000
vt 0.500000 0.125000
vt 0.625000 0.125000
vt 0.625000 0.250000
vt 0.500000 0.250000
vt 0.250000 0.625000
vt 0.375000 0.625000
vt 0.375000 0.750000
vt 0.250000 0.750000
vt 0.500000 0.625000
vt 0.625000 0.625000
vt 0.625000 0.750000
vt 0.500000 0.750000
vt 0.500000 0.375000
vt 0.625000 0.375000
vt 0.625000 0.500000
vt 0.500000 0.500000
vt 0.375000 0.375000
vt 0.375000 0.500000
vt 0.375000 0.125000
vt 0.375000 0.250000
vt 0.375000 0.875000
vt 0.375000 1.000000
vt 0.375000 0.000000
vt 0.500000 0.000000
vt 0.250000 0.500000
vt 0.625000 0.000000
vt 0.750000 0.500000
vt 0.875000 0.500000
vt 0.125000 0.500000
vt 0.125000 0.625000
vt 0.125000 0.750000
s 0
usemtl Material
f 26/1/1 15/2/1 7/3/1 20/4/1
f 24/5/2 20/6/2 7/7/2 10/8/2
f 18/9/3 15/10/3 5/11/3 12/12/3
f 25/13/4 16/14/4 4/15/4 21/16/4
f 17/17/5 14/18/5 3/19/5 11/20/5
f 23/21/6 22/22/6 1/23/6 9/24/6
f 19/25/6 23/21/6 9/24/6 2/26/6
f 16/14/5 17/17/5 11/20/5 4/15/5
f 13/27/3 18/9/3 12/12/3 6/28/3
f 21/29/2 24/5/2 10/8/2 8/30/2
f 8/31/3 10/32/3 18/9/3 13/27/3
f 2/26/5 9/24/5 17/17/5 16/14/5
f 9/24/5 1/23/5 14/18/5 17/17/5
f 19/33/4 2/26/4 16/14/4 25/13/4
f 10/32/3 7/34/3 15/10/3 18/9/3
f 22/35/7 5/36/7 15/2/7 26/1/7
f 1/23/8 22/35/8 26/1/8 14/18/8
f 6/37/4 19/33/4 25/13/4 13/38/4
f 4/15/2 11/20/2 24/5/2 21/29/2
f 6/28/6 12/12/6 23/21/6 19/25/6
f 12/12/6 5/11/6 22/22/6 23/21/6
f 13/38/4 25/13/4 21/16/4 8/39/4
f 11/20/2 3/19/2 20/6/2 24/5/2
f 14/18/9 26/1/9 20/4/9 3/19/9
