# Blender 4.0.0
# www.blender.org
mtllib 3.mtl
o Cube.002
v -0.502345 -0.000000 0.502345
v -0.502345 0.100000 0.502345
v -0.502345 -0.000000 -0.502345
v -0.502345 0.100000 -0.502345
v 0.502345 -0.000000 0.502345
v 0.502345 0.100000 0.502345
v 0.502345 -0.000000 -0.502345
v 0.502345 0.100000 -0.502345
vn -1.0000 -0.0000 -0.0000
vn -0.0000 -0.0000 -1.0000
vn 1.0000 -0.0000 -0.0000
vn -0.0000 -0.0000 1.0000
vn -0.0000 -1.0000 -0.0000
vn -0.0000 1.0000 -0.0000
vt 0.625000 0.000000
vt 0.375000 0.250000
vt 0.375000 0.000000
vt 0.625000 0.250000
vt 0.375000 0.500000
vt 0.625000 0.500000
vt 0.375000 0.750000
vt 0.625000 0.750000
vt 0.375000 1.000000
vt 0.125000 0.750000
vt 0.125000 0.500000
vt 0.875000 0.500000
vt 0.625000 1.000000
vt 0.875000 0.750000
s 0
usemtl Material
f 2/1/1 3/2/1 1/3/1
f 4/4/2 7/5/2 3/2/2
f 8/6/3 5/7/3 7/5/3
f 6/8/4 1/9/4 5/7/4
f 7/5/5 1/10/5 3/11/5
f 4/12/6 6/8/6 8/6/6
f 2/1/1 4/4/1 3/2/1
f 4/4/2 8/6/2 7/5/2
f 8/6/3 6/8/3 5/7/3
f 6/8/4 2/13/4 1/9/4
f 7/5/5 5/7/5 1/10/5
f 4/12/6 2/14/6 6/8/6
o Cylinder
v 0.000000 0.100000 -0.450000
v 0.000000 3.000000 -0.450000
v 0.225000 0.100000 -0.389711
v 0.225000 3.000000 -0.389711
v 0.389711 0.100000 -0.225000
v 0.389711 3.000000 -0.225000
v 0.450000 0.100000 0.000000
v 0.450000 3.000000 0.000000
v 0.389711 0.100000 0.225000
v 0.225000 0.100000 0.389711
v 0.225000 3.000000 0.389711
v 0.000000 0.100000 0.450000
v 0.000000 3.000000 0.450000
v -0.225000 0.100000 0.389711
v -0.225000 3.000000 0.389711
v -0.389711 0.100000 0.225000
v -0.450000 0.100000 0.000000
v -0.450000 3.000000 0.000000
v -0.389711 0.100000 -0.225000
v -0.389711 3.000000 -0.225000
v -0.225000 0.100000 -0.389711
v -0.225000 3.000000 -0.389711
v 0.389711 1.550000 -0.225000
v 0.225000 1.912500 0.389711
v -0.389711 1.550000 -0.225000
v 0.389711 2.275000 -0.225000
v 0.450000 2.637500 0.000000
v 0.389711 2.275000 0.225000
v 0.000000 2.275000 0.450000
v -0.389711 2.275000 0.225000
v 0.389711 0.825000 -0.225000
v 0.450000 1.187500 0.000000
v 0.225000 1.187500 0.389711
v -0.389711 0.825000 0.225000
v 0.000000 0.825000 -0.450000
v 0.225000 1.912500 -0.389711
v 0.450000 1.912500 0.000000
v 0.000000 1.550000 0.450000
v -0.225000 1.912500 0.389711
v -0.450000 1.912500 0.000000
v -0.225000 1.912500 -0.389711
v 0.000000 1.550000 -0.450000
v 0.000000 2.275000 -0.450000
v 0.225000 2.637500 -0.389711
v 0.389711 3.000000 0.225000
v 0.225000 2.637500 0.389711
v -0.225000 2.637500 0.389711
v -0.389711 3.000000 0.225000
v -0.450000 2.637500 0.000000
v -0.389711 2.275000 -0.225000
v -0.225000 2.637500 -0.389711
v 0.225000 1.187500 -0.389711
v 0.389711 1.550000 0.225000
v 0.000000 0.825000 0.450000
v -0.225000 1.187500 0.389711
v -0.389711 1.550000 0.225000
v -0.450000 1.187500 0.000000
v -0.389711 0.825000 -0.225000
v -0.225000 1.187500 -0.389711
v 0.225000 0.462500 -0.389711
v 0.450000 0.462500 0.000000
v 0.389711 0.825000 0.225000
v 0.225000 0.462500 0.389711
v -0.225000 0.462500 0.389711
v -0.450000 0.462500 0.000000
v -0.225000 0.462500 -0.389711
v 0.191250 0.825000 -0.331255
v -0.191250 0.825000 -0.331255
v -0.382500 0.825000 0.000000
v -0.191250 0.825000 0.331255
v 0.191250 0.825000 0.331255
v 0.382500 0.825000 0.000000
v 0.331255 1.187500 0.191250
v 0.331255 1.187500 -0.191250
v 0.000000 1.187500 -0.382500
v -0.331255 1.187500 0.191250
v -0.331255 1.187500 -0.191250
v 0.000000 1.187500 0.382500
v 0.191250 1.550000 -0.331255
v -0.191250 1.550000 -0.331255
v -0.382500 1.550000 0.000000
v -0.191250 1.550000 0.331255
v 0.191250 1.550000 0.331255
v 0.382500 1.550000 0.000000
v 0.331255 1.912500 0.191250
v 0.331255 1.912500 -0.191250
v 0.000000 1.912500 -0.382500
v -0.331255 1.912500 -0.191250
v -0.331255 1.912500 0.191250
v 0.000000 1.912500 0.382500
v -0.191250 2.275000 0.331255
v 0.191250 2.275000 0.331255
v 0.382500 2.275000 0.000000
v 0.191250 2.275000 -0.331255
v -0.191250 2.275000 -0.331255
v -0.382500 2.275000 0.000000
v -0.331255 2.637500 0.191250
v 0.000000 2.637500 0.382500
v 0.331255 2.637500 0.191250
v 0.331255 2.637500 -0.191250
v 0.000000 2.637500 -0.382500
v -0.331255 2.637500 -0.191250
v 0.000000 0.462500 -0.382500
v -0.331255 0.462500 -0.191250
v -0.331255 0.462500 0.191250
v 0.000000 0.462500 0.382500
v 0.331255 0.462500 0.191250
v 0.331255 0.462500 -0.191250
vn 0.2588 -0.0000 -0.9659
vn 0.7071 -0.0000 -0.7071
vn 0.9659 -0.0000 -0.2588
vn 0.9659 -0.0000 0.2588
vn 0.7071 -0.0000 0.7071
vn 0.2588 -0.0000 0.9659
vn -0.2588 -0.0000 0.9659
vn -0.7071 -0.0000 0.7071
vn -0.9659 -0.0000 0.2588
vn -0.9659 -0.0000 -0.2588
vn -0.0000 1.0000 -0.0000
vn -0.7071 -0.0000 -0.7071
vn -0.2588 -0.0000 -0.9659
vn -0.0000 -1.0000 -0.0000
vn -0.5186 0.1830 -0.8352
vn -0.4640 -0.1830 -0.8667
vn -0.9826 0.1830 0.0315
vn -0.4640 0.1830 0.8667
vn 0.5186 -0.1830 0.8352
vn 0.4640 -0.1830 0.8667
vn 0.9826 -0.1830 -0.0315
vn 0.9826 -0.1830 0.0315
vn 0.4640 0.1830 -0.8667
vn 0.5186 -0.1830 -0.8352
vn -0.9826 -0.1830 -0.0315
vn -0.5186 -0.1830 0.8352
vn -0.8667 -0.1830 -0.4640
vn 0.0315 -0.1830 0.9826
vn 0.8352 -0.1830 -0.5186
vn 0.8352 -0.1830 0.5186
vn 0.8667 -0.1830 0.4640
vn -0.8667 -0.1830 0.4640
vn -0.8352 -0.1830 0.5186
vn -0.0315 -0.1830 0.9826
vn 0.8667 -0.1830 -0.4640
vn -0.8352 -0.1830 -0.5186
vn -0.0315 -0.1830 -0.9826
vn 0.0315 -0.1830 -0.9826
vn 0.5186 0.1830 -0.8352
vn 0.4640 -0.1830 -0.8667
vn -0.4640 0.1830 -0.8667
vn -0.5186 -0.1830 -0.8352
vn -0.9826 -0.1830 0.0315
vn -0.9826 0.1830 -0.0315
vn -0.5186 0.1830 0.8352
vn -0.4640 -0.1830 0.8667
vn 0.4640 0.1830 0.8667
vn 0.5186 0.1830 0.8352
vn 0.9826 0.1830 -0.0315
vn 0.9826 0.1830 0.0315
vn 0.8667 0.1830 0.4640
vn 0.8352 0.1830 0.5186
vn 0.8667 0.1830 -0.4640
vn 0.8352 0.1830 -0.5186
vn 0.0315 0.1830 -0.9826
vn -0.0315 0.1830 -0.9826
vn -0.8667 0.1830 -0.4640
vn -0.8352 0.1830 -0.5186
vn -0.8352 0.1830 0.5186
vn -0.8667 0.1830 0.4640
vn 0.0315 0.1830 0.9826
vn -0.0315 0.1830 0.9826
vt 1.000000 1.000000
vt 0.916667 1.000000
vt 0.916667 0.937500
vt 0.833333 1.000000
vt 0.750000 1.000000
vt 0.750000 0.937500
vt 0.666667 0.937500
vt 0.666667 1.000000
vt 0.583333 1.000000
vt 0.583333 0.937500
vt 0.500000 1.000000
vt 0.416667 1.000000
vt 0.416667 0.937500
vt 0.333333 0.937500
vt 0.333333 1.000000
vt 0.250000 1.000000
vt 0.250000 0.937500
vt 0.166667 1.000000
vt 0.042154 0.370000
vt 0.250000 0.010000
vt 0.457846 0.370000
vt 0.083333 1.000000
vt 0.083333 0.937500
vt 0.000000 1.000000
vt 0.990000 0.250000
vt 0.630000 0.042154
vt 0.630000 0.457846
vt 0.000000 0.875000
vt 0.083333 0.812500
vt 0.083333 0.875000
vt 0.166667 0.937500
vt 0.166667 0.875000
vt 0.250000 0.812500
vt 0.250000 0.875000
vt 0.166667 0.625000
vt 0.250000 0.562500
vt 0.250000 0.625000
vt 0.333333 0.812500
vt 0.416667 0.812500
vt 0.416667 0.875000
vt 0.583333 0.718750
vt 0.583333 0.750000
vt 0.500000 0.750000
vt 0.666667 0.750000
vt 0.750000 0.718750
vt 0.750000 0.750000
vt 0.666667 0.687500
vt 0.833333 0.750000
vt 0.833333 0.875000
vt 0.916667 0.812500
vt 0.916667 0.875000
vt 1.000000 0.937500
vt 0.166667 0.687500
vt 0.083333 0.687500
vt 0.083333 0.625000
vt 0.000000 0.625000
vt 0.083333 0.562500
vt 0.333333 0.875000
vt 0.333333 0.625000
vt 0.250000 0.687500
vt 0.500000 0.875000
vt 0.333333 0.562500
vt 0.416667 0.562500
vt 0.416667 0.625000
vt 0.583333 0.843750
vt 0.583333 0.875000
vt 0.666667 0.875000
vt 0.750000 0.843750
vt 0.750000 0.875000
vt 0.666667 0.812500
vt 1.000000 0.687500
vt 0.916667 0.687500
vt 0.916667 0.625000
vt 0.166667 0.968750
vt 0.833333 0.625000
vt 0.916667 0.562500
vt 1.000000 0.812500
vt 0.916667 0.750000
vt 0.750000 0.625000
vt 0.750000 0.593750
vt 0.666667 0.562500
vt 0.666667 0.625000
vt 0.583333 0.625000
vt 0.583333 0.593750
vt 0.500000 0.625000
vt 0.500000 0.812500
vt 0.416667 0.750000
vt 0.500000 0.937500
vt 0.333333 0.750000
vt 0.250000 0.750000
vt 0.166667 0.750000
vt 0.000000 0.750000
vt 0.083333 0.750000
vt 0.166667 0.843750
vt 0.833333 0.812500
vt 0.833333 0.937500
vt 0.750000 0.812500
vt 0.666667 0.781250
vt 0.333333 0.781250
vt 0.250000 0.500000
vt 0.333333 0.500000
vt 0.333333 0.906250
vt 0.333333 0.687500
vt 0.416667 0.687500
vt 0.666667 0.906250
vt 0.833333 0.687500
vt 0.833333 0.562500
vt 0.750000 0.562500
vt 0.750000 0.687500
vt 0.666667 0.656250
vt 0.500000 0.593750
vt 0.333333 0.656250
vt 0.083333 0.500000
vt 0.000000 0.500000
vt 0.166667 0.562500
vt 0.166667 0.500000
vt 0.333333 0.531250
vt 0.500000 0.562500
vt 0.416667 0.500000
vt 0.583333 0.500000
vt 0.583333 0.562500
vt 0.500000 0.500000
vt 0.666667 0.531250
vt 1.000000 0.968750
vt 1.000000 0.562500
vt 0.916667 0.500000
vt 0.583333 0.812500
vt 0.500000 0.843750
vt 0.583333 0.687500
vt 0.500000 0.718750
vt 0.666667 0.500000
vt 0.750000 0.500000
vt 1.000000 0.843750
vt 1.000000 0.875000
vt 0.000000 0.843750
vt 0.000000 0.968750
vt 0.833333 0.500000
vt 1.000000 0.718750
vt 1.000000 0.750000
vt 0.000000 0.718750
vt 1.000000 0.593750
vt 1.000000 0.625000
vt 0.000000 0.593750
vt 0.166667 0.718750
vt 0.166667 0.593750
vt 0.166667 0.812500
vt 0.500000 0.687500
vt 0.000000 0.687500
vt 0.000000 0.812500
vt 0.000000 0.937500
vt 0.000000 0.562500
vt 0.370000 0.457846
vt 0.250000 0.490000
vt 0.130000 0.457846
vt 0.010000 0.250000
vt 0.042154 0.130000
vt 0.130000 0.042154
vt 0.370000 0.042154
vt 0.457846 0.130000
vt 0.490000 0.250000
vt 0.750000 0.490000
vt 0.870000 0.457846
vt 0.957846 0.370000
vt 0.957846 0.130000
vt 0.870000 0.042154
vt 0.750000 0.010000
vt 0.542154 0.130000
vt 0.510000 0.250000
vt 0.542154 0.370000
s 0
f 10/15/7 12/16/7 52/17/7
f 52/17/8 12/16/8 14/18/8
f 14/18/9 16/19/9 35/20/9
f 35/20/10 16/19/10 53/21/10
f 53/22/11 19/23/11 54/24/11
f 54/24/12 19/23/12 21/25/12
f 21/25/13 23/26/13 55/27/13
f 55/27/14 23/26/14 56/28/14
f 56/29/15 26/30/15 57/31/15
f 57/31/16 26/30/16 28/32/16
f 28/33/17 21/34/17 14/35/17
f 28/32/18 30/36/18 59/37/18
f 59/37/19 30/36/19 10/38/19
f 15/39/20 22/40/20 29/41/20
f 51/42/21 49/43/21 103/44/21
f 58/45/22 59/37/22 103/44/22
f 58/46/23 48/47/23 104/48/23
f 66/49/23 73/50/23 77/51/23
f 38/52/24 47/53/24 99/54/24
f 91/55/25 32/56/25 46/57/25
f 61/58/26 32/56/26 91/55/26
f 92/59/27 45/60/27 61/61/27
f 31/62/28 45/60/28 92/59/28
f 34/63/29 44/64/29 102/65/29
f 51/66/30 52/17/30 102/65/30
f 66/67/22 67/68/22 76/69/22
f 43/70/21 74/71/21 76/69/21
f 38/72/31 57/31/31 104/48/31
f 42/73/31 65/74/31 77/51/31
f 37/75/32 55/27/32 99/54/32
f 42/76/24 72/77/24 78/78/24
f 100/79/25 54/80/25 37/75/25
f 36/81/26 54/80/26 100/79/26
f 101/82/27 35/83/27 36/84/27
f 34/63/28 35/83/28 101/82/28
f 43/85/30 60/86/30 75/87/30
f 110/88/33 28/32/33 59/37/33
f 39/89/29 68/90/29 75/87/29
f 50/91/30 44/64/30 87/92/30
f 39/89/28 40/93/28 80/94/28
f 80/94/27 40/93/27 70/95/27
f 70/96/26 41/97/26 79/98/26
f 79/98/25 41/97/25 62/99/25
f 46/100/32 47/53/32 90/101/32
f 106/102/34 21/25/34 55/27/34
f 64/103/31 48/47/31 89/104/31
f 33/105/23 65/74/23 89/104/23
f 50/106/21 67/68/21 88/107/21
f 96/108/33 58/46/33 49/43/33
f 94/109/35 34/63/35 45/60/35
f 108/110/35 14/18/35 35/83/35
f 45/111/36 36/84/36 93/112/36
f 93/112/37 36/84/37 32/56/37
f 47/53/38 38/52/38 97/113/38
f 97/113/39 38/52/39 48/47/39
f 25/114/15 24/115/15 73/50/15
f 105/116/39 56/28/39 57/31/39
f 55/27/38 56/28/38 105/116/38
f 54/24/40 21/25/40 106/102/40
f 64/117/24 63/118/24 90/101/24
f 107/119/37 53/21/37 54/80/37
f 35/20/36 53/21/36 107/119/36
f 52/17/41 14/18/41 108/110/41
f 60/86/41 31/62/41 82/120/41
f 57/31/42 28/32/42 110/88/42
f 82/120/35 31/62/35 40/93/35
f 116/121/35 39/89/35 69/122/35
f 40/123/36 61/61/36 81/124/36
f 81/124/37 61/61/37 41/97/37
f 114/125/34 62/99/34 72/77/34
f 63/118/38 64/117/38 84/126/38
f 84/126/39 64/117/39 65/74/39
f 29/127/19 74/71/19 9/128/19
f 27/129/18 74/71/18 29/127/18
f 25/114/16 73/50/16 27/130/16
f 113/131/39 42/76/39 73/50/39
f 72/77/38 42/76/38 113/131/38
f 20/132/13 72/77/13 22/133/13
f 18/134/12 71/135/12 20/136/12
f 115/137/37 70/95/37 71/135/37
f 69/122/36 70/95/36 115/137/36
f 68/90/41 39/89/41 116/121/41
f 109/138/43 10/15/43 52/17/43
f 9/139/7 68/90/7 11/140/7
f 32/141/40 37/75/40 98/142/40
f 41/143/40 46/57/40 86/144/40
f 71/135/40 62/99/40 114/125/40
f 18/134/11 17/145/11 71/135/11
f 15/146/10 69/122/10 17/145/10
f 95/147/43 51/148/43 44/64/43
f 49/43/44 51/42/44 95/149/44
f 48/47/42 58/46/42 96/108/42
f 59/37/44 10/38/44 109/150/44
f 11/140/8 68/90/8 13/151/8
f 15/146/9 13/151/9 69/122/9
f 44/64/41 34/63/41 94/109/41
f 83/152/43 50/153/43 60/86/43
f 67/68/44 50/106/44 83/154/44
f 111/155/43 43/156/43 68/90/43
f 74/71/44 43/70/44 111/157/44
f 31/62/29 60/86/29 87/92/29
f 85/158/33 33/105/33 67/68/33
f 65/74/42 33/105/42 85/158/42
f 112/159/33 66/49/33 74/71/33
f 73/50/42 66/49/42 112/159/42
f 33/160/22 49/43/22 88/107/22
f 22/133/14 72/77/14 24/115/14
f 86/144/34 46/57/34 63/118/34
f 98/142/34 37/75/34 47/53/34
f 62/161/32 63/118/32 78/78/32
f 68/90/45 43/85/45 75/87/45
f 60/86/46 39/89/46 75/87/46
f 74/71/47 66/67/47 76/69/47
f 67/68/48 43/70/48 76/69/48
f 65/74/49 66/49/49 77/51/49
f 73/50/50 42/73/50 77/51/50
f 72/77/51 62/161/51 78/78/51
f 63/118/52 42/76/52 78/78/52
f 71/135/53 70/96/53 79/98/53
f 71/135/54 79/98/54 62/99/54
f 69/122/55 80/94/55 70/95/55
f 69/122/56 39/89/56 80/94/56
f 70/96/57 81/124/57 41/97/57
f 70/96/58 40/123/58 81/124/58
f 39/89/59 60/86/59 82/120/59
f 39/89/60 82/120/60 40/93/60
f 43/162/61 67/68/61 83/154/61
f 43/85/62 83/152/62 60/86/62
f 66/67/63 85/158/63 67/68/63
f 66/67/64 65/74/64 85/158/64
f 42/73/65 84/126/65 65/74/65
f 42/73/66 63/118/66 84/126/66
f 62/161/67 86/144/67 63/118/67
f 62/161/68 41/143/68 86/144/68
f 60/86/45 50/91/45 87/92/45
f 44/64/46 31/62/46 87/92/46
f 49/43/48 50/106/48 88/107/48
f 67/68/47 33/160/47 88/107/47
f 65/74/50 64/103/50 89/104/50
f 48/47/49 33/105/49 89/104/49
f 47/53/52 64/117/52 90/101/52
f 63/118/51 46/100/51 90/101/51
f 41/143/53 61/58/53 91/55/53
f 41/143/54 91/55/54 46/57/54
f 40/123/55 92/59/55 61/61/55
f 40/123/56 31/62/56 92/59/56
f 61/58/58 45/111/58 93/112/58
f 61/58/57 93/112/57 32/56/57
f 31/62/60 94/109/60 45/60/60
f 31/62/59 44/64/59 94/109/59
f 50/163/61 49/43/61 95/149/61
f 50/91/62 95/147/62 44/64/62
f 33/160/63 96/108/63 49/43/63
f 33/160/64 48/47/64 96/108/64
f 64/103/65 97/113/65 48/47/65
f 64/103/66 47/53/66 97/113/66
f 46/100/67 98/142/67 47/53/67
f 46/100/68 32/141/68 98/142/68
f 55/27/52 38/52/52 99/54/52
f 47/53/51 37/75/51 99/54/51
f 32/141/54 100/79/54 37/75/54
f 32/141/53 36/81/53 100/79/53
f 45/111/55 101/82/55 36/84/55
f 45/111/56 34/63/56 101/82/56
f 44/64/45 51/66/45 102/65/45
f 52/17/46 34/63/46 102/65/46
f 49/43/47 58/45/47 103/44/47
f 59/37/48 51/42/48 103/44/48
f 57/31/49 58/46/49 104/48/49
f 48/47/50 38/72/50 104/48/50
f 38/72/65 105/116/65 57/31/65
f 38/72/66 55/27/66 105/116/66
f 37/75/67 106/102/67 55/27/67
f 37/75/68 54/24/68 106/102/68
f 36/81/57 107/119/57 54/80/57
f 36/81/58 35/20/58 107/119/58
f 34/63/59 52/17/59 108/110/59
f 34/63/60 108/110/60 35/83/60
f 51/164/61 59/37/61 109/150/61
f 51/66/62 109/138/62 52/17/62
f 58/45/63 110/88/63 59/37/63
f 58/45/64 57/31/64 110/88/64
f 9/165/61 74/71/61 111/157/61
f 9/139/62 111/155/62 68/90/62
f 27/129/63 112/159/63 74/71/63
f 27/129/64 73/50/64 112/159/64
f 24/115/65 113/131/65 73/50/65
f 24/115/66 72/77/66 113/131/66
f 20/132/67 114/125/67 72/77/67
f 20/132/68 71/135/68 114/125/68
f 17/145/57 115/137/57 71/135/57
f 17/145/58 69/122/58 115/137/58
f 13/151/60 116/121/60 69/122/60
f 13/151/59 68/90/59 116/121/59
f 14/35/17 12/166/17 10/167/17
f 10/167/17 30/168/17 28/33/17
f 28/33/17 26/169/17 56/170/17
f 56/170/17 23/171/17 21/34/17
f 21/34/17 19/172/17 53/173/17
f 53/173/17 16/174/17 14/35/17
f 14/35/17 10/167/17 28/33/17
f 28/33/17 56/170/17 21/34/17
f 21/34/17 53/173/17 14/35/17
f 29/41/20 9/175/20 11/176/20
f 11/176/20 13/177/20 15/39/20
f 15/39/20 17/178/20 18/179/20
f 18/179/20 20/180/20 22/40/20
f 22/40/20 24/181/20 25/182/20
f 25/182/20 27/183/20 29/41/20
f 29/41/20 11/176/20 15/39/20
f 15/39/20 18/179/20 22/40/20
f 22/40/20 25/182/20 29/41/20
