# Blender 4.0.0
# www.blender.org
mtllib 4.mtl
o Cube
v 0.000000 3.900000 -0.445477
v 0.450000 0.100000 -0.450000
v 0.445477 3.900000 0.000000
v 0.450000 0.100000 0.450000
v -0.445477 3.900000 0.000000
v -0.450000 0.100000 -0.450000
v 0.000000 3.900000 0.445477
v -0.450000 0.100000 0.450000
v -0.500000 0.000000 0.500000
v -0.500000 0.100000 0.500000
v -0.500000 0.000000 -0.500000
v -0.500000 0.100000 -0.500000
v 0.500000 0.000000 0.500000
v 0.500000 0.100000 0.500000
v 0.500000 0.000000 -0.500000
v 0.500000 0.100000 -0.500000
v 0.000000 3.893588 0.388909
v 0.000000 3.950000 0.388909
v -0.388909 3.893588 0.000000
v -0.388909 3.950000 0.000000
v 0.388909 3.893588 0.000000
v 0.388909 3.950000 0.000000
v 0.000000 3.893588 -0.388909
v 0.000000 3.950000 -0.388909
v 0.000000 3.950000 0.318198
v 0.000000 4.000000 0.318198
v -0.318198 3.950000 0.000000
v -0.318198 4.000000 0.000000
v 0.318198 3.950000 0.000000
v 0.318198 4.000000 0.000000
v 0.000000 3.950000 -0.318198
v 0.000000 4.000000 -0.318198
vn -0.0000 1.0000 -0.0000
vn 0.7046 0.0843 0.7046
vn -0.7046 0.0843 0.7046
vn -0.0000 -1.0000 -0.0000
vn 0.7046 0.0843 -0.7046
vn -0.7046 0.0843 -0.7046
vn -0.0000 0.0012 1.0000
vn 1.0000 0.0012 -0.0000
vn -0.0000 0.0012 -1.0000
vn -1.0000 0.0012 -0.0000
vn -1.0000 -0.0000 -0.0000
vn -0.0000 -0.0000 -1.0000
vn 1.0000 -0.0000 -0.0000
vn -0.0000 -0.0000 1.0000
vn -0.7071 -0.0000 0.7071
vn -0.7071 -0.0000 -0.7071
vn 0.7071 -0.0000 -0.7071
vn 0.7071 -0.0000 0.7071
vt 0.875000 0.500000
vt 0.625000 0.750000
vt 0.625000 0.500000
vt 0.375000 0.750000
vt 0.625000 1.000000
vt 0.375000 0.000000
vt 0.625000 0.000000
vt 0.625000 0.250000
vt 0.375000 0.500000
vt 0.125000 0.750000
vt 0.125000 0.500000
vt 0.375000 0.250000
vt 0.375000 1.000000
vt 0.875000 0.750000
s 0
usemtl Material
f 5/1/1 3/2/1 1/3/1
f 4/4/2 3/2/2 7/5/2
f 8/6/3 7/7/3 5/8/3
f 2/9/4 8/10/4 6/11/4
f 2/9/5 1/3/5 3/2/5
f 6/12/6 5/8/6 1/3/6
f 8/13/7 4/4/7 7/5/7
f 4/4/8 2/9/8 3/2/8
f 2/9/9 6/12/9 1/3/9
f 6/12/10 8/6/10 5/8/10
f 10/7/11 11/12/11 9/6/11
f 12/8/12 15/9/12 11/12/12
f 16/3/13 13/4/13 15/9/13
f 14/2/14 9/13/14 13/4/14
f 15/9/4 9/10/4 11/11/4
f 12/1/1 14/2/1 16/3/1
f 18/7/15 19/12/15 17/6/15
f 20/8/16 23/9/16 19/12/16
f 24/3/17 21/4/17 23/9/17
f 22/2/18 17/13/18 21/4/18
f 23/9/4 17/10/4 19/11/4
f 20/1/1 22/2/1 24/3/1
f 26/7/15 27/12/15 25/6/15
f 28/8/16 31/9/16 27/12/16
f 32/3/17 29/4/17 31/9/17
f 30/2/18 25/13/18 29/4/18
f 31/9/4 25/10/4 27/11/4
f 28/1/1 30/2/1 32/3/1
f 5/1/1 7/14/1 3/2/1
f 2/9/4 4/4/4 8/10/4
f 10/7/11 12/8/11 11/12/11
f 12/8/12 16/3/12 15/9/12
f 16/3/13 14/2/13 13/4/13
f 14/2/14 10/5/14 9/13/14
f 15/9/4 13/4/4 9/10/4
f 12/1/1 10/14/1 14/2/1
f 18/7/15 20/8/15 19/12/15
f 20/8/16 24/3/16 23/9/16
f 24/3/17 22/2/17 21/4/17
f 22/2/18 18/5/18 17/13/18
f 23/9/4 21/4/4 17/10/4
f 20/1/1 18/14/1 22/2/1
f 26/7/15 28/8/15 27/12/15
f 28/8/16 32/3/16 31/9/16
f 32/3/17 30/2/17 29/4/17
f 30/2/18 26/5/18 25/13/18
f 31/9/4 29/4/4 25/10/4
f 28/1/1 26/14/1 30/2/1
