# Blender 4.0.0
# www.blender.org
mtllib 4.mtl
o Cube
v 0.000000 3.900000 -0.445477
v 0.450000 0.100000 -0.450000
v 0.445477 3.900000 0.000000
v 0.450000 0.100000 0.450000
v -0.445477 3.900000 0.000000
v -0.450000 0.100000 -0.450000
v 0.000000 3.900000 0.445477
v -0.450000 0.100000 0.450000
vn -0.0000 1.0000 -0.0000
vn 0.7046 0.0843 0.7046
vn -0.7046 0.0843 0.7046
vn -0.0000 -1.0000 -0.0000
vn 0.7046 0.0843 -0.7046
vn -0.7046 0.0843 -0.7046
vn -0.0000 0.0012 1.0000
vn 1.0000 0.0012 -0.0000
vn -0.0000 0.0012 -1.0000
vn -1.0000 0.0012 -0.0000
vt 0.875000 0.500000
vt 0.625000 0.750000
vt 0.625000 0.500000
vt 0.375000 0.750000
vt 0.625000 1.000000
vt 0.375000 0.000000
vt 0.625000 0.000000
vt 0.625000 0.250000
vt 0.375000 0.500000
vt 0.125000 0.750000
vt 0.125000 0.500000
vt 0.375000 0.250000
vt 0.375000 1.000000
vt 0.875000 0.750000
s 0
usemtl Material
f 5/1/1 3/2/1 1/3/1
f 4/4/2 3/2/2 7/5/2
f 8/6/3 7/7/3 5/8/3
f 2/9/4 8/10/4 6/11/4
f 2/9/5 1/3/5 3/2/5
f 6/12/6 5/8/6 1/3/6
f 8/13/7 4/4/7 7/5/7
f 4/4/8 2/9/8 3/2/8
f 2/9/9 6/12/9 1/3/9
f 6/12/10 8/6/10 5/8/10
f 5/1/1 7/14/1 3/2/1
f 2/9/4 4/4/4 8/10/4
o Cube.001
v -0.500000 0.000000 0.500000
v -0.500000 0.100000 0.500000
v -0.500000 0.000000 -0.500000
v -0.500000 0.100000 -0.500000
v 0.500000 0.000000 0.500000
v 0.500000 0.100000 0.500000
v 0.500000 0.000000 -0.500000
v 0.500000 0.100000 -0.500000
vn -1.0000 -0.0000 -0.0000
vn -0.0000 -0.0000 -1.0000
vn 1.0000 -0.0000 -0.0000
vn -0.0000 -0.0000 1.0000
vn -0.0000 -1.0000 -0.0000
vn -0.0000 1.0000 -0.0000
vt 0.625000 0.000000
vt 0.375000 0.250000
vt 0.375000 0.000000
vt 0.625000 0.250000
vt 0.375000 0.500000
vt 0.625000 0.500000
vt 0.375000 0.750000
vt 0.625000 0.750000
vt 0.375000 1.000000
vt 0.125000 0.750000
vt 0.125000 0.500000
vt 0.875000 0.500000
vt 0.625000 1.000000
vt 0.875000 0.750000
s 0
f 10/15/11 11/16/11 9/17/11
f 12/18/12 15/19/12 11/16/12
f 16/20/13 13/21/13 15/19/13
f 14/22/14 9/23/14 13/21/14
f 15/19/15 9/24/15 11/25/15
f 12/26/16 14/22/16 16/20/16
f 10/15/11 12/18/11 11/16/11
f 12/18/12 16/20/12 15/19/12
f 16/20/13 14/22/13 13/21/13
f 14/22/14 10/27/14 9/23/14
f 15/19/15 13/21/15 9/24/15
f 12/26/16 10/28/16 14/22/16
o Cube.002
v 0.000000 3.893588 0.388909
v 0.000000 3.950000 0.388909
v -0.388909 3.893588 0.000000
v -0.388909 3.950000 0.000000
v 0.388909 3.893588 0.000000
v 0.388909 3.950000 0.000000
v 0.000000 3.893588 -0.388909
v 0.000000 3.950000 -0.388909
vn -0.7071 -0.0000 0.7071
vn -0.7071 -0.0000 -0.7071
vn 0.7071 -0.0000 -0.7071
vn 0.7071 -0.0000 0.7071
vn -0.0000 -1.0000 -0.0000
vn -0.0000 1.0000 -0.0000
vt 0.625000 0.000000
vt 0.375000 0.250000
vt 0.375000 0.000000
vt 0.625000 0.250000
vt 0.375000 0.500000
vt 0.625000 0.500000
vt 0.375000 0.750000
vt 0.625000 0.750000
vt 0.375000 1.000000
vt 0.125000 0.750000
vt 0.125000 0.500000
vt 0.875000 0.500000
vt 0.625000 1.000000
vt 0.875000 0.750000
s 0
f 18/29/17 19/30/17 17/31/17
f 20/32/18 23/33/18 19/30/18
f 24/34/19 21/35/19 23/33/19
f 22/36/20 17/37/20 21/35/20
f 23/33/21 17/38/21 19/39/21
f 20/40/22 22/36/22 24/34/22
f 18/29/17 20/32/17 19/30/17
f 20/32/18 24/34/18 23/33/18
f 24/34/19 22/36/19 21/35/19
f 22/36/20 18/41/20 17/37/20
f 23/33/21 21/35/21 17/38/21
f 20/40/22 18/42/22 22/36/22
o Cube.003
v 0.000000 3.950000 0.318198
v 0.000000 4.000000 0.318198
v -0.318198 3.950000 0.000000
v -0.318198 4.000000 0.000000
v 0.318198 3.950000 0.000000
v 0.318198 4.000000 0.000000
v 0.000000 3.950000 -0.318198
v 0.000000 4.000000 -0.318198
vn -0.7071 -0.0000 0.7071
vn -0.7071 -0.0000 -0.7071
vn 0.7071 -0.0000 -0.7071
vn 0.7071 -0.0000 0.7071
vn -0.0000 -1.0000 -0.0000
vn -0.0000 1.0000 -0.0000
vt 0.625000 0.000000
vt 0.375000 0.250000
vt 0.375000 0.000000
vt 0.625000 0.250000
vt 0.375000 0.500000
vt 0.625000 0.500000
vt 0.375000 0.750000
vt 0.625000 0.750000
vt 0.375000 1.000000
vt 0.125000 0.750000
vt 0.125000 0.500000
vt 0.875000 0.500000
vt 0.625000 1.000000
vt 0.875000 0.750000
s 0
f 26/43/23 27/44/23 25/45/23
f 28/46/24 31/47/24 27/44/24
f 32/48/25 29/49/25 31/47/25
f 30/50/26 25/51/26 29/49/26
f 31/47/27 25/52/27 27/53/27
f 28/54/28 30/50/28 32/48/28
f 26/43/23 28/46/23 27/44/23
f 28/46/24 32/48/24 31/47/24
f 32/48/25 30/50/25 29/49/25
f 30/50/26 26/55/26 25/51/26
f 31/47/27 29/49/27 25/52/27
f 28/54/28 26/56/28 30/50/28
