# Blender 4.0.0
# www.blender.org
mtllib 5.mtl
o Cube
v 0.450000 0.100000 -0.450000
v 0.450000 0.100000 0.450000
v -0.450000 0.100000 -0.450000
v -0.450000 0.100000 0.450000
v -0.225000 0.400000 -0.450000
v 0.225000 0.400000 -0.450000
v -0.112500 0.700000 -0.337500
v 0.112500 0.700000 -0.337500
v 0.450000 0.400000 -0.225000
v 0.450000 0.400000 0.225000
v -0.337500 0.700000 -0.112500
v -0.225000 3.600000 -0.337500
v -0.450000 0.400000 0.225000
v -0.450000 0.400000 -0.225000
v 0.337500 3.600000 -0.337500
v 0.337500 3.600000 0.337500
v 0.225000 3.600000 -0.337500
v -0.337500 3.600000 -0.337500
v 0.225000 0.400000 0.450000
v -0.225000 0.400000 0.450000
v -0.225000 3.600000 0.337500
v 0.225000 0.400000 0.337500
v -0.225000 0.400000 0.337500
v 0.112500 0.700000 0.337500
v -0.112500 0.700000 0.337500
v 0.337500 3.600000 -0.225000
v 0.337500 0.400000 -0.225000
v 0.337500 0.400000 0.225000
v 0.337500 0.700000 -0.112500
v 0.337500 0.700000 0.112500
v -0.337500 0.700000 0.112500
v -0.337500 0.400000 -0.225000
v -0.337500 0.400000 0.225000
v -0.337500 3.600000 0.225000
v 0.225000 0.400000 -0.337500
v -0.225000 0.400000 -0.337500
v 0.225000 3.600000 0.450000
v -0.225000 3.600000 0.450000
v 0.450000 3.600000 -0.225000
v 0.450000 3.600000 0.225000
v -0.450000 3.600000 0.225000
v -0.450000 3.600000 -0.225000
v -0.225000 3.600000 -0.450000
v 0.225000 3.600000 -0.450000
v 0.337500 3.600000 0.225000
v 0.225000 3.600000 0.337500
v -0.337500 3.600000 -0.225000
v 0.112500 0.700000 -0.225000
v -0.112500 0.700000 -0.225000
v 0.225000 0.700000 0.112500
v 0.225000 0.700000 -0.112500
v -0.112500 0.700000 0.225000
v 0.112500 0.700000 0.225000
v -0.225000 0.700000 -0.112500
v -0.225000 0.700000 0.112500
v -0.337500 3.600000 0.337500
v -0.225000 5.000001 0.225000
v -0.225000 5.000001 -0.225000
v 0.225000 5.000001 -0.225000
v 0.225000 5.000001 0.225000
v -0.225000 4.661178 0.112500
v -0.112500 4.661178 -0.225000
v 0.337500 4.661178 0.112500
v 0.225000 4.661178 0.112500
v -0.337500 4.661178 0.112500
v 0.112500 4.661178 -0.337500
v 0.112500 4.661178 -0.225000
v -0.225000 4.661178 -0.112500
v 0.450000 3.600000 0.450000
v 0.337500 4.661178 -0.112500
v 0.450000 3.600000 -0.450000
v -0.450000 3.600000 0.450000
v -0.450000 3.600000 -0.450000
v -0.337500 4.661178 -0.112500
v -0.112500 4.661178 -0.337500
v 0.112500 4.661178 0.337500
v -0.112500 4.661178 0.337500
v -0.112500 4.661178 0.225000
v 0.225000 4.661178 -0.112500
v 0.112500 4.661178 0.225000
v -0.225000 4.661178 -0.225000
v 0.225000 4.661178 0.225000
v 0.225000 4.661178 -0.225000
v -0.225000 4.661178 0.225000
v 0.337500 4.661178 -0.337500
v -0.337500 4.661178 0.337500
v -0.337500 4.661178 -0.337500
v 0.337500 4.661178 0.337500
v -0.500000 0.000000 0.500000
v -0.500000 0.100000 0.500000
v -0.500000 0.000000 -0.500000
v -0.500000 0.100000 -0.500000
v 0.500000 0.000000 0.500000
v 0.500000 0.100000 0.500000
v 0.500000 0.000000 -0.500000
v 0.500000 0.100000 -0.500000
vn -0.0000 -0.0000 -1.0000
vn -1.0000 -0.0000 -0.0000
vn 1.0000 -0.0000 -0.0000
vn -0.0000 1.0000 -0.0000
vn -0.0000 -0.0000 1.0000
vn -0.0000 -1.0000 -0.0000
vt 0.406250 0.437500
vt 0.375000 0.500000
vt 0.375000 0.250000
vt 0.000000 0.000000
vt 0.406250 0.312500
vt 0.437500 0.406250
vt 0.375000 0.750000
vt 0.406250 0.687500
vt 0.406250 0.562500
vt 0.406250 0.187500
vt 0.375000 0.000000
vt 0.406250 0.062500
vt 0.406250 0.937500
vt 0.375000 1.000000
vt 0.437500 0.156250
vt 0.437500 0.093750
vt 0.437500 0.343750
vt 0.437500 0.843750
vt 0.437500 0.593750
vt 0.406250 0.812500
vt 0.437500 0.906250
vt 0.437500 0.656250
vt 0.875000 0.750000
vt 0.812500 0.718750
vt 0.843750 0.718750
vt 0.625000 0.500000
vt 0.656250 0.531250
vt 0.625000 0.562500
vt 0.875000 0.500000
vt 0.843750 0.562500
vt 0.843750 0.531250
vt 0.625000 0.750000
vt 0.656250 0.687500
vt 0.656250 0.718750
vt 0.812500 0.531250
vt 0.812500 0.656250
vt 0.812500 0.687500
vt 0.781250 0.562500
vt 0.812500 0.562500
vt 0.687500 0.687500
vt 0.687500 0.593750
vt 0.718750 0.687500
vt 0.843750 0.656250
vt 0.687500 0.562500
vt 0.656250 0.593750
vt 0.718750 0.718750
vt 0.781250 0.531250
vt 0.625000 0.000000
vt 0.625000 0.250000
vt 0.125000 0.750000
vt 0.125000 0.500000
vt 0.625000 0.437500
vt 0.625000 0.312500
vt 0.625000 0.687500
vt 0.625000 0.187500
vt 0.625000 0.062500
vt 0.812500 0.750000
vt 0.625000 1.000000
vt 0.687500 0.750000
vt 0.625000 0.812500
vt 0.843750 0.687500
vt 0.875000 0.687500
vt 0.687500 0.500000
vt 0.687500 0.531250
vt 0.656250 0.562500
vt 0.812500 0.500000
vt 0.875000 0.562500
vt 0.687500 0.718750
vt 0.625000 0.937500
vt 0.781250 0.718750
vt 0.781250 0.687500
vt 0.718750 0.531250
vt 0.718750 0.562500
vt 0.656250 0.656250
vt 0.687500 0.656250
vt 0.843750 0.593750
vt 0.812500 0.593750
s 0
usemtl Material
f 6/1/1 1/2/1 3/3/1
f 35/1/2 44/4/2 6/1/2
f 43/4/3 36/5/3 5/5/3
f 36/5/4 6/1/4 5/5/4
f 48/6/2 66/4/2 8/6/2
f 2/7/3 1/2/3 10/8/3
f 27/9/4 10/8/4 9/9/4
f 39/4/5 27/9/5 9/9/5
f 14/10/2 3/3/2 4/11/2
f 33/12/4 14/10/4 13/12/4
f 41/4/1 33/12/1 13/12/1
f 32/10/5 42/4/5 14/10/5
f 20/13/5 4/14/5 2/7/5
f 54/15/5 74/4/5 11/15/5
f 31/16/4 54/15/4 11/15/4
f 45/4/1 10/8/1 28/8/1
f 49/17/4 8/6/4 7/17/4
f 76/4/2 53/18/2 24/18/2
f 70/4/5 51/19/5 29/19/5
f 23/13/3 38/4/3 20/13/3
f 22/20/4 20/13/4 19/20/4
f 37/4/2 22/20/2 19/20/2
f 52/21/3 77/4/3 25/21/3
f 24/18/4 52/21/4 25/21/4
f 50/22/1 63/4/1 30/22/1
f 75/4/3 49/17/3 7/17/3
f 65/4/1 55/16/1 31/16/1
f 72/23/4 21/24/4 56/25/4
f 71/26/4 15/27/4 39/28/4
f 73/29/4 47/30/4 18/31/4
f 69/32/4 45/33/4 16/34/4
f 51/19/4 30/22/4 29/19/4
f 7/17/1 36/5/1 12/35/1
f 68/4/2 61/36/2 57/37/2
f 67/4/1 62/38/1 58/39/1
f 60/40/3 64/4/3 79/41/3
f 78/4/5 80/42/5 60/40/5
f 22/20/5 24/18/5 23/13/5
f 27/9/3 29/19/3 28/8/3
f 33/12/2 31/16/2 32/10/2
f 86/25/4 84/37/4 65/43/4
f 85/27/4 83/44/4 70/45/4
f 88/34/4 82/40/4 76/46/4
f 87/31/4 81/39/4 75/47/4
f 57/37/4 59/44/4 58/39/4
f 90/48/2 91/3/2 89/11/2
f 92/49/1 95/2/1 91/3/1
f 96/26/3 93/7/3 95/2/3
f 94/32/5 89/14/5 93/7/5
f 95/2/6 89/50/6 91/51/6
f 92/29/4 94/32/4 96/26/4
f 4/50/6 1/2/6 2/7/6
f 6/1/1 44/52/1 71/26/1
f 3/3/1 73/49/1 43/53/1
f 3/3/1 43/53/1 5/5/1
f 6/1/1 71/26/1 1/2/1
f 3/3/1 5/5/1 6/1/1
f 35/1/2 17/4/2 44/4/2
f 43/4/3 12/53/3 36/5/3
f 36/5/4 35/1/4 6/1/4
f 48/6/2 67/4/2 66/4/2
f 1/2/3 71/26/3 39/28/3
f 1/2/3 39/28/3 9/9/3
f 40/54/3 69/32/3 2/7/3
f 1/2/3 9/9/3 10/8/3
f 10/8/3 40/54/3 2/7/3
f 27/9/4 28/8/4 10/8/4
f 39/4/5 26/28/5 27/9/5
f 14/10/2 42/55/2 73/49/2
f 4/11/2 72/48/2 41/56/2
f 4/11/2 41/56/2 13/12/2
f 14/10/2 73/49/2 3/3/2
f 4/11/2 13/12/2 14/10/2
f 33/12/4 32/10/4 14/10/4
f 41/4/1 34/56/1 33/12/1
f 32/10/5 47/4/5 42/4/5
f 20/13/5 38/57/5 72/58/5
f 2/7/5 69/32/5 37/59/5
f 2/7/5 37/59/5 19/20/5
f 20/13/5 72/58/5 4/14/5
f 2/7/5 19/20/5 20/13/5
f 54/15/5 68/4/5 74/4/5
f 31/16/4 55/16/4 54/15/4
f 45/4/1 40/4/1 10/8/1
f 49/17/4 48/6/4 8/6/4
f 76/4/2 80/4/2 53/18/2
f 70/4/5 79/4/5 51/19/5
f 23/13/3 21/4/3 38/4/3
f 22/20/4 23/13/4 20/13/4
f 37/4/2 46/60/2 22/20/2
f 52/21/3 78/4/3 77/4/3
f 24/18/4 53/18/4 52/21/4
f 50/22/1 64/4/1 63/4/1
f 75/4/3 62/4/3 49/17/3
f 65/4/1 61/4/1 55/16/1
f 34/61/4 41/62/4 72/23/4
f 72/23/4 38/57/4 21/24/4
f 56/25/4 34/61/4 72/23/4
f 71/26/4 44/63/4 17/64/4
f 15/27/4 26/65/4 39/28/4
f 71/26/4 17/64/4 15/27/4
f 12/35/4 43/66/4 73/29/4
f 73/29/4 42/67/4 47/30/4
f 18/31/4 12/35/4 73/29/4
f 46/68/4 37/59/4 69/32/4
f 69/32/4 40/54/4 45/33/4
f 16/34/4 46/68/4 69/32/4
f 51/19/4 50/22/4 30/22/4
f 66/4/1 85/27/1 15/27/1
f 66/4/1 15/27/1 17/52/1
f 8/6/1 66/4/1 17/52/1
f 12/35/1 18/31/1 87/31/1
f 8/6/1 17/52/1 35/1/1
f 12/35/1 87/31/1 75/4/1
f 7/17/1 8/6/1 35/1/1
f 12/35/1 75/4/1 7/17/1
f 7/17/1 35/1/1 36/5/1
f 57/37/2 58/39/2 81/39/2
f 68/4/2 54/15/2 55/16/2
f 57/37/2 81/39/2 68/4/2
f 61/36/2 84/37/2 57/37/2
f 68/4/2 55/16/2 61/36/2
f 58/39/1 59/44/1 83/44/1
f 67/4/1 48/6/1 49/17/1
f 58/39/1 83/44/1 67/4/1
f 62/38/1 81/39/1 58/39/1
f 67/4/1 49/17/1 62/38/1
f 83/44/3 59/44/3 60/40/3
f 60/40/3 82/40/3 64/4/3
f 64/4/3 50/22/3 51/19/3
f 79/41/3 83/44/3 60/40/3
f 64/4/3 51/19/3 79/41/3
f 60/40/5 57/37/5 84/37/5
f 78/4/5 52/21/5 53/18/5
f 60/40/5 84/37/5 78/4/5
f 80/42/5 82/40/5 60/40/5
f 78/4/5 53/18/5 80/42/5
f 46/68/5 16/34/5 88/34/5
f 77/4/5 86/25/5 56/25/5
f 77/4/5 56/25/5 21/69/5
f 25/21/5 77/4/5 21/69/5
f 46/68/5 88/34/5 76/4/5
f 46/68/5 76/4/5 24/18/5
f 25/21/5 21/69/5 23/13/5
f 22/20/5 46/68/5 24/18/5
f 24/18/5 25/21/5 23/13/5
f 26/65/3 15/27/3 85/27/3
f 63/4/3 88/34/3 16/34/3
f 63/4/3 16/34/3 45/54/3
f 30/22/3 63/4/3 45/54/3
f 26/65/3 85/27/3 70/4/3
f 26/65/3 70/4/3 29/19/3
f 30/22/3 45/54/3 28/8/3
f 27/9/3 26/65/3 29/19/3
f 29/19/3 30/22/3 28/8/3
f 34/61/2 56/25/2 86/25/2
f 74/4/2 87/31/2 18/31/2
f 74/4/2 18/31/2 47/55/2
f 11/15/2 74/4/2 47/55/2
f 34/61/2 86/25/2 65/4/2
f 34/61/2 65/4/2 31/16/2
f 11/15/2 47/55/2 32/10/2
f 33/12/2 34/61/2 31/16/2
f 31/16/2 11/15/2 32/10/2
f 86/25/4 77/70/4 78/71/4
f 84/37/4 61/36/4 65/43/4
f 86/25/4 78/71/4 84/37/4
f 85/27/4 66/72/4 67/73/4
f 83/44/4 79/41/4 70/45/4
f 85/27/4 67/73/4 83/44/4
f 88/34/4 63/74/4 64/75/4
f 82/40/4 80/42/4 76/46/4
f 88/34/4 64/75/4 82/40/4
f 87/31/4 74/76/4 68/77/4
f 81/39/4 62/38/4 75/47/4
f 87/31/4 68/77/4 81/39/4
f 57/37/4 60/40/4 59/44/4
f 90/48/2 92/49/2 91/3/2
f 92/49/1 96/26/1 95/2/1
f 96/26/3 94/32/3 93/7/3
f 94/32/5 90/58/5 89/14/5
f 95/2/6 93/7/6 89/50/6
f 92/29/4 90/23/4 94/32/4
f 4/50/6 3/51/6 1/2/6
